Coordinates
version=1
nRows=26
nColumns=30
inDegrees=yes

Units are S.I. units (second, meters, Newtons, ...)
Angles are in degrees.

endheader
time	floatyaw	floatroll	floatpitch	floatx	floaty	floatz	pro_sup_l	deviation_l	flexion_l	cmc_flexion_l	cmc_abduction_l	mp_flexion_l	ip_flexion_l	2mcp_flexion_l	2mcp_abduction_l	2pm_flexion_l	2md_flexion_l	3mcp_flexion_l	3mcp_abduction_l	3pm_flexion_l	3md_flexion_l	4mcp_flexion_l	4mcp_abduction_l	4pm_flexion_l	4md_flexion_l	5mcp_flexion_l	5mcp_abduction_l	5pm_flexion_l	5md_flexion_l
0.005000	-0.845308	-4.283240	94.249796	0.164018	-0.269717	0.159522	106.018918	21.296917	22.110733	-5.902462	36.927441	-16.973885	-21.832853	60.377640	13.345846	28.781422	34.246454	52.781437	7.851704	36.159729	49.421201	35.078067	-6.416900	70.585995	63.994761	27.546871	-10.396401	81.188735	55.313246
0.015000	-0.845308	-4.283240	94.249796	0.163395	-0.269076	0.158918	105.449979	20.980070	21.514310	-5.170103	36.846000	-17.381370	-24.284962	60.622518	13.303248	29.087744	35.414689	52.709312	7.782305	36.767738	51.096543	34.838497	-6.470146	71.050838	64.813780	27.307397	-10.237033	81.389604	55.531441
0.025000	-0.845308	-4.283240	94.249796	0.162713	-0.268436	0.158293	104.900371	20.695235	20.876987	-4.479139	36.857401	-17.702177	-26.806715	60.817814	13.275186	29.412021	36.684504	52.601305	7.717283	37.418596	52.814463	34.613809	-6.523278	71.500447	65.647543	27.073604	-10.089244	81.553011	55.756263
0.035000	-0.845308	-4.283240	94.249796	0.161996	-0.267840	0.157636	104.381762	20.438391	20.232894	-3.866197	36.929524	-17.950317	-29.262815	60.963518	13.265407	29.727381	38.012546	52.459188	7.657960	38.091386	54.464101	34.419253	-6.575615	71.899068	66.454265	26.867388	-9.961341	81.652902	55.943749
0.045000	-0.845308	-4.283240	94.249796	0.161275	-0.267321	0.156935	103.900940	20.197881	19.619101	-3.350080	37.035294	-18.134606	-31.536555	61.064267	13.272973	30.006464	39.342239	52.292687	7.605836	38.751823	55.948769	34.260578	-6.625819	72.219495	67.197060	26.699315	-9.858186	81.687645	56.069758
0.055000	-0.845308	-4.283240	94.249796	0.160575	-0.266898	0.156187	103.464100	19.964197	19.069734	-2.935995	37.157179	-18.254347	-33.537664	61.128908	13.293111	30.223550	40.603140	52.123506	7.562979	39.344592	57.201961	34.138090	-6.671747	72.445621	67.850581	26.572465	-9.780609	81.670834	56.137140
0.065000	-0.845308	-4.283240	94.249796	0.159920	-0.266578	0.155404	103.079240	19.737717	18.609747	-2.620590	37.287643	-18.302569	-35.202936	61.168415	13.318797	30.359789	41.714223	51.981419	7.531428	39.802144	58.192389	34.049255	-6.710927	72.573948	68.400860	26.486862	-9.725860	81.618535	56.170397
0.075000	-0.845308	-4.283240	94.249796	0.159325	-0.266361	0.154626	102.756338	19.531062	18.249132	-2.395718	37.425885	-18.275068	-36.496338	61.193637	13.342949	30.410317	42.595706	51.894041	7.511965	40.068988	58.919204	33.989876	-6.741323	72.615497	68.840452	26.440786	-9.688719	81.543018	56.200572
0.085000	-0.845308	-4.283240	94.249796	0.158796	-0.266235	0.153909	102.506247	19.365027	17.980385	-2.250043	37.572442	-18.179218	-37.412998	61.213527	13.360627	30.389338	43.188459	51.875472	7.503170	40.129104	59.401063	33.954418	-6.762048	72.596646	69.163734	26.428940	-9.663061	81.454440	56.247736
0.095000	-0.845308	-4.283240	94.249796	0.158336	-0.266180	0.153316	102.338062	19.259732	17.782088	-2.168781	37.724595	-18.036590	-37.985213	61.234113	13.370251	30.328550	43.473896	51.919922	7.501565	40.019939	59.664896	33.936455	-6.773789	72.555342	69.366821	26.440605	-9.643481	81.365640	56.309653
0.105000	-0.845308	-4.283240	94.249796	0.157947	-0.266167	0.152893	102.254102	19.224982	17.628255	-2.133131	37.875399	-17.877575	-38.283283	61.258268	13.373321	30.267015	43.485386	52.003859	7.502908	39.822875	59.740801	33.929808	-6.778726	72.531237	69.453082	26.460659	-9.626370	81.294959	56.362471
0.115000	-0.845308	-4.283240	94.249796	0.157635	-0.266170	0.152655	102.244220	19.254549	17.498993	-2.121489	38.016507	-17.731421	-38.404265	61.286074	13.372943	30.236082	43.304591	52.095504	7.503845	39.633039	59.665461	33.929670	-6.779847	72.553060	69.440482	26.473355	-9.610031	81.264334	56.373634
0.125000	-0.845308	-4.283240	94.249796	0.157409	-0.266172	0.152570	102.284250	19.327274	17.386486	-2.113413	38.141761	-17.617543	-38.448587	61.315375	13.372053	30.247214	43.041226	52.166742	7.502910	39.523113	59.488817	33.932452	-6.779882	72.629297	69.364205	26.466306	-9.594014	81.292126	56.320936
0.135000	-0.845308	-4.283240	94.249796	0.157269	-0.266168	0.152582	102.342090	19.414370	17.293144	-2.094972	38.248350	-17.542210	-38.493338	61.342377	13.372177	30.289709	42.801761	52.201877	7.500407	39.518987	59.274307	33.934371	-6.780451	72.746651	69.270229	26.432406	-9.578242	81.383100	56.207592
0.145000	-0.845308	-4.283240	94.249796	0.157200	-0.266164	0.152626	102.389133	19.489249	17.223953	-2.062462	38.335289	-17.500646	-38.575185	61.362715	13.373119	30.338959	42.659175	52.200230	7.497511	39.597956	59.087581	33.930552	-6.781837	72.876734	69.201718	26.369852	-9.562548	81.521158	56.064149
0.155000	-0.845308	-4.283240	94.249796	0.157173	-0.266165	0.152658	102.410218	19.535377	17.178821	-2.022104	38.401660	-17.481770	-38.691089	61.373337	13.373527	30.369369	42.636926	52.173043	7.495309	39.707347	58.978547	33.916307	-6.783398	72.987664	69.185399	26.282161	-9.546889	81.670618	55.935093
0.165000	-0.845308	-4.283240	94.249796	0.157152	-0.266180	0.152660	102.406365	19.549201	17.150133	-1.985711	38.446706	-17.472846	-38.814391	61.374522	13.371914	30.364750	42.712992	52.137315	7.494262	39.791628	58.967464	33.890044	-6.784272	73.055524	69.225117	26.178756	-9.531894	81.787522	55.857748
0.175000	-0.845308	-4.283240	94.249796	0.157109	-0.266206	0.152643	102.389697	19.537784	17.126372	-1.964532	38.471547	-17.463133	-38.915584	61.370387	13.367628	30.322907	42.838540	52.109282	7.494201	39.814706	59.042620	33.855292	-6.783983	73.071232	69.304914	26.074258	-9.519012	81.836160	55.846485
0.185000	-0.845308	-4.283240	94.249796	0.157036	-0.266240	0.152624	102.374510	19.513095	17.098321	-1.964154	38.480768	-17.446550	-38.977045	61.366866	13.361284	30.255348	42.959662	52.099300	7.494604	39.769798	59.169458	33.819822	-6.782743	73.040868	69.398777	25.984703	-9.509778	81.802222	55.891409
0.195000	-0.845308	-4.283240	94.249796	0.156940	-0.266273	0.152622	102.369656	19.486078	17.063184	-1.982473	38.482389	-17.422827	-38.997612	61.368157	13.354476	30.183474	43.033777	52.109363	7.494916	39.676065	59.305880	33.792208	-6.781341	72.980421	69.482140	25.922024	-9.504677	81.695993	55.969991
0.205000	-0.845308	-4.283240	94.249796	0.156841	-0.266298	0.152640	102.375564	19.463155	17.024316	-2.011120	38.485893	-17.396328	-38.989230	61.374210	13.348956	30.131220	43.039264	52.133995	7.494752	39.565845	59.417554	33.778111	-6.780699	72.908316	69.540653	25.890291	-9.502640	81.545258	56.061299
0.215000	-0.845308	-4.283240	94.249796	0.156757	-0.266311	0.152672	102.386153	19.446055	16.987660	-2.039295	38.499117	-17.372998	-38.969682	61.381208	13.345803	30.115153	42.979343	52.164081	7.493948	39.468932	59.487999	33.778380	-6.781292	72.839563	69.573200	25.885840	-9.501742	81.383461	56.152884
0.225000	-0.845308	-4.283240	94.249796	0.156699	-0.266316	0.152702	102.393405	19.433904	16.957773	-2.058180	38.525393	-17.357207	-38.954566	61.384708	13.345001	30.136291	42.879381	52.191565	7.492520	39.401077	59.520197	33.789627	-6.782786	72.783565	69.588661	25.900364	-9.500498	81.239709	56.238368
0.235000	-0.845308	-4.283240	94.249796	0.156665	-0.266316	0.152717	102.391707	19.425585	16.935747	-2.064043	38.562388	-17.350155	-38.951152	61.383100	13.345594	30.178770	42.776497	52.212570	7.490606	39.361288	59.530049	33.806492	-6.784150	72.744770	69.599098	25.924507	-9.498681	81.133712	56.311536
0.245000	-0.845308	-4.283240	94.249796	0.156646	-0.266316	0.152710	102.379946	19.420840	16.919537	-2.058888	38.603327	-17.350086	-38.956476	61.379080	13.346231	30.216973	42.703918	52.227690	7.488449	39.337415	59.535758	33.824076	-6.784233	72.723987	69.613586	25.950200	-9.497056	81.074708	56.363816
0.255000	-0.845308	-4.283240	94.249796	0.156634	-0.266317	0.152681	102.360967	19.419823	16.905778	-2.048701	38.640103	-17.353552	-38.960286	61.378343	13.345800	30.227481	42.676646	52.240109	7.486428	39.315180	59.548705	33.839274	-6.782488	72.719101	69.635506	25.971374	-9.496451	81.062228	56.386952
